<?xml version="1.0" encoding="utf-8" ?>
<svg baseProfile="full" height="200mm" version="1.1" viewBox="0,0,200,200" width="200mm" xmlns="http://www.w3.org/2000/svg" xmlns:ev="http://www.w3.org/2001/xml-events" xmlns:xlink="http://www.w3.org/1999/xlink"><defs /><rect fill="#1a1a1a" height="200" width="200" x="0" y="0" /><text alignment-baseline="middle" fill="#e1ed5e" style="dominant-baseline: central; font-size:9.0px; font-family:Arial;" text-anchor="middle" x="100.0" y="100.0">2015</text><line stroke="#e1ed5e" stroke-width="0.3" x1="100.0" x2="100.0" y1="15.0" y2="10.0" /><path d="M 100.0 14.0 a86.0,86.0 0 0,1 42.46469731375804,11.215312516191453" fill="none" id="id13" stroke="none" /><text fill="#e1ed5e" style="font-size:6.75px; font-family:Arial;" text-anchor="middle"><textPath startOffset="22.20632615414155" xlink:href="#id13">January</textPath></text><path d="M 105.71112130821622 79.79150937346287 l 6.500587127233955 -23.001972281468806 a44.902894423818616,44.902894423818616 0 0,0 0.741987791314154,0.21660658292951698 l -6.895565136271537 22.886667369620586" fill="#ff0000" stroke="none" /><path d="M 108.09893153111575 80.62456947434976 l 15.423380657587076 -36.89803269155026 a60.99181775583029,60.99181775583029 0 0,0 0.9651700801026405,0.41323545812890333 l -16.05623449548003 36.62707770545857" fill="#b3ff20" stroke="none" /><line stroke="#e1ed5e" stroke-width="0.3" x1="143.23703022742887" x2="145.7803849466894" y1="26.818313649435467" y2="22.513508569990506" /><path d="M 143.74570117128098 25.957352633546478 a86.0,86.0 0 0,1 28.547481713284135,27.462654790039114" fill="none" id="id14" stroke="none" /><text fill="#e1ed5e" style="font-size:6.75px; font-family:Arial;" text-anchor="middle"><textPath startOffset="19.985693538727396" xlink:href="#id14">February</textPath></text><line stroke="#e1ed5e" stroke-width="0.3" x1="172.23445277983987" x2="176.4835382374775" y1="55.19839476539836" y2="52.563006222186495" /><path d="M 173.08426987136738 54.67131705675599 a86.0,86.0 0 0,1 12.851231095245387,41.99856678651699" fill="none" id="id15" stroke="none" /><text fill="#e1ed5e" style="font-size:6.75px; font-family:Arial;" text-anchor="middle"><textPath startOffset="22.20632615414155" xlink:href="#id15">March</textPath></text><path d="M 120.08093135843002 93.85539295169968 l 30.941122905915297 -9.467740240554143 a53.357243268572255,53.357243268572255 0 0,0 0.26118142639931174,0.8805739295763655 l -31.099510229426308 8.933736924231248" fill="#ffb811" stroke="none" /><path d="M 120.73433829027371 96.67025291283417 l 47.53733631154343 -7.634066006786205 a69.14641531197057,69.14641531197057 0 0,0 0.17860883430823607,1.1768090574954269 l -47.66170103929097 6.814657836898696" fill="#30ff33" stroke="none" /><line stroke="#e1ed5e" stroke-width="0.3" x1="184.98032266829074" x2="189.97916517819016" y1="98.17113171792111" y2="98.06355123074" /><path d="M 185.9800911702706 98.14961562048488 a86.0,86.0 0 0,1 -9.607161424134198,41.387399972396054" fill="none" id="id16" stroke="none" /><text fill="#e1ed5e" style="font-size:6.75px; font-family:Arial;" text-anchor="middle"><textPath startOffset="21.466115282336823" xlink:href="#id16">April</textPath></text><path d="M 120.9904718944345 100.63252640178507 l 62.97141568330351 1.8975792053552112 a84.0,84.0 0 0,0 -0.05599146859518722,1.4448910119439753 l -62.92942208185712 -2.9812474643131925" fill="#4dd2ff" stroke="none" /><path d="M 119.79798401119884 107.00284435728193 l 59.16059800657484 20.925992246959087 a83.75247810258443,83.75247810258443 0 0,0 -0.4924475774457228,1.3550042353118534 l -58.79162616812389 -21.941244279277072" fill="#4dd6ff" stroke="none" /><line stroke="#e1ed5e" stroke-width="0.3" x1="174.80103733775053" x2="179.2010983576182" y1="140.37084112569926" y2="142.7455964860345" /><path d="M 175.68104954172406 140.8457921977663 a86.0,86.0 0 0,1 -30.038265399797805,32.042727171017184" fill="none" id="id17" stroke="none" /><text fill="#e1ed5e" style="font-size:6.75px; font-family:Arial;" text-anchor="middle"><textPath startOffset="22.206326154141568" xlink:href="#id17">May</textPath></text><path d="M 111.1453310114006 117.79835938074945 l 24.967019849926988 39.87068589535439 a68.04278556753054,68.04278556753054 0 0,0 -0.998028249968815,0.6130704656428743 l -24.277012400025864 -40.294544827825646" fill="#3dff2e" stroke="none" /><line stroke="#e1ed5e" stroke-width="0.3" x1="143.8653032363475" x2="146.44561519142675" y1="172.8068346515853" y2="177.08958963109032" /><path d="M 144.38136562736335 173.6633856474863 a86.0,86.0 0 0,1 -40.68145358897372,12.25698825130547" fill="none" id="id18" stroke="none" /><text fill="#e1ed5e" style="font-size:6.75px; font-family:Arial;" text-anchor="middle"><textPath startOffset="21.466115282336833" xlink:href="#id18">June</textPath></text><line stroke="#e1ed5e" stroke-width="0.3" x1="102.19456741930631" x2="102.32365962044197" y1="184.97166512339345" y2="189.96999836594603" /><path d="M 102.22038585953345 185.97133177190398 a86.0,86.0 0 0,1 -42.740103519485714,-10.115201625700543" fill="none" id="id19" stroke="none" /><text fill="#e1ed5e" style="font-size:6.75px; font-family:Arial;" text-anchor="middle"><textPath startOffset="22.20632615414155" xlink:href="#id19">July</textPath></text><path d="M 90.7491055286396 118.85261126421891 l -20.69221989043251 42.169152290707736 a67.97238943156833,67.97238943156833 0 0,0 -1.045952953822715,-0.5244625246738454 l 21.415026751937983 -41.806721925124585" fill="#3eff2d" stroke="none" /><path d="M 90.42595943632237 118.69057910512821 l -22.88410690475403 44.67468123920492 a71.19471578416177,71.19471578416177 0 0,0 -1.0859197694146436,-0.568101899619892 l 23.64971757669517 -44.27414992064031" fill="#34ff5a" stroke="none" /><path d="M 90.10565033884886 118.52300852407294 l -26.792099974575812 50.15693938485134 a77.86418195580868,77.86418195580868 0 0,0 -1.1767769107277621,-0.6416725990729167 l 27.651499697172216 -49.68832613401866" fill="#41ffce" stroke="none" /><line stroke="#e1ed5e" stroke-width="0.3" x1="58.666819895761336" x2="56.23545636021788" y1="174.27360380694188" y2="178.64263932499728" /><path d="M 58.180547188652646 175.14741091055294 a86.0,86.0 0 0,1 -31.652253787137756,-30.449443065178592" fill="none" id="id20" stroke="none" /><text fill="#e1ed5e" style="font-size:6.75px; font-family:Arial;" text-anchor="middle"><textPath startOffset="22.20632615414155" xlink:href="#id20">August</textPath></text><path d="M 86.51685102203217 116.09983520530335 l -29.547939716774977 35.28233359088895 a67.0209061745305,67.0209061745305 0 0,0 -0.8780840514144407,-0.7483222782420589 l 30.150889244766475 -34.76848692242394" fill="#4dff2c" stroke="none" /><line stroke="#e1ed5e" stroke-width="0.3" x1="26.63291911575756" x2="22.317208475507996" y1="142.92168965132927" y2="145.44649492493687" /><path d="M 25.769776987707644 143.4266507060508 a86.0,86.0 0 0,1 -11.730757126820373,-40.83630448921669" fill="none" id="id21" stroke="none" /><text fill="#e1ed5e" style="font-size:6.75px; font-family:Arial;" text-anchor="middle"><textPath startOffset="21.46611528233685" xlink:href="#id21">September</textPath></text><line stroke="#e1ed5e" stroke-width="0.3" x1="15.007084014347285" x2="10.007500721073583" y1="101.09737516637583" y2="101.16192664675087" /><path d="M 14.007167355692545 101.11028546245083 a86.0,86.0 0 0,1 10.666146001902526,-42.60595125391555" fill="none" id="id22" stroke="none" /><text fill="#e1ed5e" style="font-size:6.75px; font-family:Arial;" text-anchor="middle"><textPath startOffset="22.20632615414155" xlink:href="#id22">October</textPath></text><line stroke="#e1ed5e" stroke-width="0.3" x1="26.266209847984243" x2="21.928928074336255" y1="57.71137044288968" y2="55.22380399835378" /><path d="M 25.398753493254645 57.2138571539825 a86.0,86.0 0 0,1 29.58750427330803,-30.4925239686951" fill="none" id="id23" stroke="none" /><text fill="#e1ed5e" style="font-size:6.75px; font-family:Arial;" text-anchor="middle"><textPath startOffset="21.46611528233685" xlink:href="#id23">November</textPath></text><line stroke="#e1ed5e" stroke-width="0.3" x1="56.76296977257108" x2="54.21961505331056" y1="26.818313649435495" y2="22.513508569990535" /><path d="M 56.25429882871898 25.957352633546506 a86.0,86.0 0 0,1 42.26535254187918,-11.944610805530505" fill="none" id="id24" stroke="none" /><text fill="#e1ed5e" style="font-size:6.75px; font-family:Arial;" text-anchor="middle"><textPath startOffset="22.20632615414155" xlink:href="#id24">December</textPath></text></svg>