<?xml version="1.0" encoding="utf-8" ?>
<svg baseProfile="full" height="200mm" version="1.1" viewBox="0,0,200,200" width="200mm" xmlns="http://www.w3.org/2000/svg" xmlns:ev="http://www.w3.org/2001/xml-events" xmlns:xlink="http://www.w3.org/1999/xlink"><defs /><rect fill="#1a1a1a" height="200" width="200" x="0" y="0" /><text alignment-baseline="middle" fill="#e1ed5e" style="dominant-baseline: central; font-size:9.0px; font-family:Arial;" text-anchor="middle" x="100.0" y="100.0">2014</text><line stroke="#e1ed5e" stroke-width="0.3" x1="100.0" x2="100.0" y1="15.0" y2="10.0" /><path d="M 100.0 14.0 a86.0,86.0 0 0,1 42.46469731375804,11.215312516191453" fill="none" id="id1" stroke="none" /><text fill="#e1ed5e" style="font-size:6.75px; font-family:Arial;" text-anchor="middle"><textPath startOffset="22.20632615414155" xlink:href="#id1">January</textPath></text><line stroke="#e1ed5e" stroke-width="0.3" x1="143.23703022742887" x2="145.7803849466894" y1="26.818313649435467" y2="22.513508569990506" /><path d="M 143.74570117128098 25.957352633546478 a86.0,86.0 0 0,1 28.547481713284135,27.462654790039114" fill="none" id="id2" stroke="none" /><text fill="#e1ed5e" style="font-size:6.75px; font-family:Arial;" text-anchor="middle"><textPath startOffset="19.985693538727396" xlink:href="#id2">February</textPath></text><line stroke="#e1ed5e" stroke-width="0.3" x1="172.23445277983987" x2="176.4835382374775" y1="55.19839476539836" y2="52.563006222186495" /><path d="M 173.08426987136738 54.67131705675599 a86.0,86.0 0 0,1 12.851231095245387,41.99856678651699" fill="none" id="id3" stroke="none" /><text fill="#e1ed5e" style="font-size:6.75px; font-family:Arial;" text-anchor="middle"><textPath startOffset="22.20632615414155" xlink:href="#id3">March</textPath></text><line stroke="#e1ed5e" stroke-width="0.3" x1="184.98032266829074" x2="189.97916517819016" y1="98.17113171792111" y2="98.06355123074" /><path d="M 185.9800911702706 98.14961562048488 a86.0,86.0 0 0,1 -9.607161424134198,41.387399972396054" fill="none" id="id4" stroke="none" /><text fill="#e1ed5e" style="font-size:6.75px; font-family:Arial;" text-anchor="middle"><textPath startOffset="21.466115282336823" xlink:href="#id4">April</textPath></text><line stroke="#e1ed5e" stroke-width="0.3" x1="174.80103733775053" x2="179.2010983576182" y1="140.37084112569926" y2="142.7455964860345" /><path d="M 175.68104954172406 140.8457921977663 a86.0,86.0 0 0,1 -30.038265399797805,32.042727171017184" fill="none" id="id5" stroke="none" /><text fill="#e1ed5e" style="font-size:6.75px; font-family:Arial;" text-anchor="middle"><textPath startOffset="22.206326154141568" xlink:href="#id5">May</textPath></text><path d="M 114.29624159901734 115.38237550388516 l 12.763195989136252 13.732859225607205 a39.748082418408785,39.748082418408785 0 0,0 -0.5051800526334062,0.46147000037717756 l -12.524916387035981 -13.950521992570966" fill="#ff0000" stroke="none" /><path d="M 114.0293411484842 115.62618273729858 l 19.1439633388776 21.32295923830801 a49.655888103474204,49.655888103474204 0 0,0 -0.6409337235076895,0.5655494909093209 l -18.774087262463322 -21.64933187098962" fill="#ffbe11" stroke="none" /><line stroke="#e1ed5e" stroke-width="0.3" x1="143.8653032363475" x2="146.44561519142675" y1="172.8068346515853" y2="177.08958963109032" /><path d="M 144.38136562736335 173.6633856474863 a86.0,86.0 0 0,1 -40.68145358897372,12.25698825130547" fill="none" id="id6" stroke="none" /><text fill="#e1ed5e" style="font-size:6.75px; font-family:Arial;" text-anchor="middle"><textPath startOffset="21.466115282336833" xlink:href="#id6">June</textPath></text><line stroke="#e1ed5e" stroke-width="0.3" x1="102.19456741930631" x2="102.32365962044197" y1="184.97166512339345" y2="189.96999836594603" /><path d="M 102.22038585953345 185.97133177190398 a86.0,86.0 0 0,1 -42.740103519485714,-10.115201625700543" fill="none" id="id7" stroke="none" /><text fill="#e1ed5e" style="font-size:6.75px; font-family:Arial;" text-anchor="middle"><textPath startOffset="22.20632615414155" xlink:href="#id7">July</textPath></text><line stroke="#e1ed5e" stroke-width="0.3" x1="58.666819895761336" x2="56.23545636021788" y1="174.27360380694188" y2="178.64263932499728" /><path d="M 58.180547188652646 175.14741091055294 a86.0,86.0 0 0,1 -31.652253787137756,-30.449443065178592" fill="none" id="id8" stroke="none" /><text fill="#e1ed5e" style="font-size:6.75px; font-family:Arial;" text-anchor="middle"><textPath startOffset="22.20632615414155" xlink:href="#id8">August</textPath></text><path d="M 83.72743513129214 113.27417163493433 l -25.09655834654304 20.47225041817327 a53.387501879981954,53.387501879981954 0 0,0 -0.5747598997714932,-0.7171013483395892 l 25.445236158369397 -20.037221236255423" fill="#feff18" stroke="none" /><path d="M 83.50135304334701 112.99209946851258 l -37.37071326374979 29.428111602576895 a68.56662656038502,68.56662656038502 0 0,0 -0.7222128743576993,-0.9335574953825148 l 37.87173295532556 -28.780476113081125" fill="#32ff4a" stroke="none" /><path d="M 82.05923443525364 110.91462005526583 l -35.60495894263959 21.660981943038088 a62.67626710783576,62.67626710783576 0 0,0 -0.5528020622960501,-0.9265280535233972 l 35.97254188063388 -21.04489179562858" fill="#6cff28" stroke="none" /><line stroke="#e1ed5e" stroke-width="0.3" x1="26.63291911575756" x2="22.317208475507996" y1="142.92168965132927" y2="145.44649492493687" /><path d="M 25.769776987707644 143.4266507060508 a86.0,86.0 0 0,1 -11.730757126820373,-40.83630448921669" fill="none" id="id9" stroke="none" /><text fill="#e1ed5e" style="font-size:6.75px; font-family:Arial;" text-anchor="middle"><textPath startOffset="21.46611528233685" xlink:href="#id9">September</textPath></text><path d="M 81.69416730710424 110.29060199501025 l -21.85054010635692 12.283255035854841 a46.06640096255076,46.06640096255076 0 0,0 -0.3826222409302008,-0.6945705074309786 l 22.058738756738638 -11.905314010026041" fill="#ff7c0b" stroke="none" /><path d="M 80.87730276802145 108.67885076344099 l -39.28795390847388 17.830867928107335 a64.14490900887351,64.14490900887351 0 0,0 -0.44766706115959065,-1.009371042262234 l 39.589062054364746 -17.151948549352404" fill="#56ff2a" stroke="none" /><path d="M 80.0844068197444 106.66101706037122 l -57.9780687913397 19.39148394180713 a82.13498270416605,82.13498270416605 0 0,0 -0.4369101919381755,-1.344671304952204 l 58.30327123429412 -18.39061373687712" fill="#4aeaff" stroke="none" /><line stroke="#e1ed5e" stroke-width="0.3" x1="15.007084014347285" x2="10.007500721073583" y1="101.09737516637583" y2="101.16192664675087" /><path d="M 14.007167355692545 101.11028546245083 a86.0,86.0 0 0,1 10.666146001902526,-42.60595125391555" fill="none" id="id10" stroke="none" /><text fill="#e1ed5e" style="font-size:6.75px; font-family:Arial;" text-anchor="middle"><textPath startOffset="22.20632615414155" xlink:href="#id10">October</textPath></text><line stroke="#e1ed5e" stroke-width="0.3" x1="26.266209847984243" x2="21.928928074336255" y1="57.71137044288968" y2="55.22380399835378" /><path d="M 25.398753493254645 57.2138571539825 a86.0,86.0 0 0,1 29.58750427330803,-30.4925239686951" fill="none" id="id11" stroke="none" /><text fill="#e1ed5e" style="font-size:6.75px; font-family:Arial;" text-anchor="middle"><textPath startOffset="21.46611528233685" xlink:href="#id11">November</textPath></text><path d="M 82.7489923806493 88.02491185347247 l -44.73482830092417 -31.053462148056475 a75.45661001654383,75.45661001654383 0 0,0 0.749849631563475,-1.0606091262706114 l 44.19366604955682 31.818897774658872" fill="#3effb7" stroke="none" /><line stroke="#e1ed5e" stroke-width="0.3" x1="56.76296977257108" x2="54.21961505331056" y1="26.818313649435495" y2="22.513508569990535" /><path d="M 56.25429882871898 25.957352633546506 a86.0,86.0 0 0,1 42.26535254187918,-11.944610805530505" fill="none" id="id12" stroke="none" /><text fill="#e1ed5e" style="font-size:6.75px; font-family:Arial;" text-anchor="middle"><textPath startOffset="22.20632615414155" xlink:href="#id12">December</textPath></text><path d="M 92.91201910852362 80.23233633223022 l -10.486992332666402 -29.247163683514103 a52.070461723567455,52.070461723567455 0 0,0 0.8463136020470188,-0.29526219795102465 l 9.981996726556098 29.423346734637338" fill="#ffe915" stroke="none" /><path d="M 93.59665428221793 80.00007090966166 l -7.136229774216451 -22.288986999459635 a44.403519326214465,44.403519326214465 0 0,0 0.7299402083110038,-0.2267959758890878 l 6.751504193194719 22.40852311023125" fill="#ff5d08" stroke="none" /><path d="M 94.28887869178378 79.79150937346287 l -14.70083338699364 -52.018095514089744 a75.05549706722815,75.05549706722815 0 0,0 1.2462862025097736,-0.3406570978799673 l 13.803249295260146 52.26343915279601" fill="#3dffb1" stroke="none" /><path d="M 96.75951476605007 79.25152402106235 l -4.180854651743027 -26.76955951050031 a48.094074296886745,48.094074296886745 0 0,0 0.8190444202921855,-0.1207058568865762 l 3.7194412510221913 26.837559851547855" fill="#ffa20f" stroke="none" /><path d="M 97.47563105711357 79.15227682838746 l -7.573106828659279 -62.54316951483762 a84.0,84.0 0 0,0 1.436933185961128,-0.16145618611760604 l 6.495406939188433 62.66426165442583" fill="#4dd2ff" stroke="none" /><path d="M 97.83486435360386 79.11191278185805 l -5.091601890066192 -49.121090651657006 a70.38426831102421,70.38426831102421 0 0,0 1.2061680768226917,-0.11454019258222313 l 4.245308686153264 49.20145638875441" fill="#35ff68" stroke="none" /></svg>