<?xml version="1.0" encoding="utf-8" ?>
<svg baseProfile="full" height="200mm" version="1.1" viewBox="0,0,200,200" width="200mm" xmlns="http://www.w3.org/2000/svg" xmlns:ev="http://www.w3.org/2001/xml-events" xmlns:xlink="http://www.w3.org/1999/xlink"><defs /><rect fill="#1a1a1a" height="200" width="200" x="0" y="0" /><text alignment-baseline="middle" fill="#e1ed5e" style="dominant-baseline: central; font-size:9.0px; font-family:Arial;" text-anchor="middle" x="100.0" y="100.0">2024</text><line stroke="#e1ed5e" stroke-width="0.3" x1="100.0" x2="100.0" y1="15.0" y2="10.0" /><path d="M 100.0 14.0 a86.0,86.0 0 0,1 42.35913384403234,11.155469271406648" fill="none" id="id121" stroke="none" /><text fill="#e1ed5e" style="font-size:6.75px; font-family:Arial;" text-anchor="middle"><textPath startOffset="22.145653131862478" xlink:href="#id121">January</textPath></text><path d="M 102.15924093988457 79.11130261209362 l 1.585292860755347 -15.336270366056102 a36.417987618205316,36.417987618205316 0 0,0 0.6212979761690323,0.06961773413330496 l -1.8483267385251758 15.306796871415827" fill="#ff3605" stroke="none" /><path d="M 104.64783097203109 79.52079915486377 l 7.010842389803818 -30.89106515671007 a52.676644669705425,52.676644669705425 0 0,0 0.8801209934985196,0.2077061580204288 l -7.540095537042223 30.766162855043415" fill="#c9ff1d" stroke="none" /><path d="M 105.69591212413111 79.78721728523813 l 6.665500928560532 -23.65351132845818 a45.57473297503232,45.57473297503232 0 0,0 0.7512017860804462,0.21866389179588397 l -7.070562727022583 23.535603742359783" fill="#ffcc13" stroke="none" /><path d="M 106.04205211174951 79.88797359093562 l 10.5565178606264 -35.13921463666452 a57.690659228518946,57.690659228518946 0 0,0 0.9460151857691064,0.29307792277058897 l -11.158173679267136 34.95282012608729" fill="#84ff25" stroke="none" /><path d="M 107.06938296918511 80.22567764915836 l 12.047006882877234 -33.69762233892417 a56.7863119940132,56.7863119940132 0 0,0 0.9151001912536934,0.3360374656867549 l -12.623696225785052 33.48585402422869" fill="#90ff24" stroke="none" /><path d="M 108.73861861582097 80.90454125486305 l 5.1360075240605 -11.223103341854278 a33.34247227702565,33.34247227702565 0 0,0 0.5184139764702539,0.24264391724428916 l -5.327910214402259 11.133283193039455" fill="#ff0000" stroke="none" /><path d="M 109.06512990194946 81.05736502329252 l 26.56025882752669 -55.50072567062878 a82.52867542009662,82.52867542009662 0 0,0 1.2726697941321838,0.6225265706067213 l -27.50908887092094 55.03660534992484" fill="#4be2ff" stroke="none" /><path d="M 110.34350942703115 81.72400993836675 l 6.5322348708705595 -11.54183311017202 a34.26212667528404,34.26212667528404 0 0,0 0.5093759054830894,0.2940883161493711 l -6.729403244214047 11.427997896746477" fill="#ff1001" stroke="none" /><line stroke="#e1ed5e" stroke-width="0.3" x1="143.13028292997686" x2="145.6673583964461" y1="26.7553504044142" y2="22.446841604673864" /><path d="M 143.63769802327073 25.89364864446614 a86.0,86.0 0 0,1 29.32050498858742,28.57503671076992" fill="none" id="id122" stroke="none" /><text fill="#e1ed5e" style="font-size:6.75px; font-family:Arial;" text-anchor="middle"><textPath startOffset="20.669276256404974" xlink:href="#id122">February</textPath></text><path d="M 112.16784306229584 82.88440491214696 l 13.909890588859165 -19.566003096552986 a45.00653105653446,45.00653105653446 0 0,0 0.6258457964619919,0.4530640927869115 l -14.243717395695125 19.324338232393" fill="#ffc312" stroke="none" /><path d="M 113.31354834802062 83.75963576809568 l 19.52760721901953 -23.82050566268393 a51.80168718960474,51.80168718960474 0 0,0 0.6828588832285565,0.5696651671070366 l -19.933640436409977 23.481778311665025" fill="#d5ff1c" stroke="none" /><path d="M 115.16444852881244 85.47280134310134 l 20.223145731760727 -19.37331614496286 a49.00537451527315,49.00537451527315 0 0,0 0.576732972715215,0.6124704309596064 l -20.552734538212203 19.023304254058754" fill="#feff18" stroke="none" /><path d="M 115.41159269507618 85.73525988315684 l 11.973330516740692 -11.082335974849686 a37.31498741410981,37.31498741410981 0 0,0 0.4310810352247354,0.4738335719943565 l -12.161809252807306 10.875164827297658" fill="#ff4606" stroke="none" /><path d="M 115.6541949942343 86.00192230759917 l 11.746922042314099 -10.504170125353136 a36.75841894006395,36.75841894006395 0 0,0 0.4165760482909631,0.47398707314466904 l -11.925509154563652 10.300970774397172" fill="#ff3c05" stroke="none" /><path d="M 116.35404254752997 86.82634096563983 l 23.976275978466457 -19.313590736728425 a51.78760459895231,51.78760459895231 0 0,0 0.5517440774022476,0.6971106177407765 l -24.304286486510264 18.89916017507297" fill="#d5ff1c" stroke="none" /><path d="M 117.62189284568427 88.57770195909679 l 19.03191144557463 -12.33625506199072 a43.680318389006054,43.680318389006054 0 0,0 0.4024461348771895,0.6327121685532039 l -19.24087527207771 12.007729218758842" fill="#ffaf10" stroke="none" /><path d="M 117.81537515405839 88.88188828441811 l 26.085976895517053 -16.279578893312163 a51.74903054629567,51.74903054629567 0 0,0 0.46384882653279985,0.7576621985486999 l -26.361593686505255 15.82937957863891" fill="#d6ff1c" stroke="none" /><line stroke="#e1ed5e" stroke-width="0.3" x1="172.87174338648825" x2="177.1583165268699" y1="56.24261187166439" y2="53.66864786411523" /><path d="M 173.72905801456457 55.72781907015455 a86.0,86.0 0 0,1 12.242430191666344,42.057860355516425" fill="none" id="id123" stroke="none" /><text fill="#e1ed5e" style="font-size:6.75px; font-family:Arial;" text-anchor="middle"><textPath startOffset="22.145653131862474" xlink:href="#id123">March</textPath></text><path d="M 118.18653347947321 89.5 l 54.55960043841963 -31.500000000000007 a84.0,84.0 0 0,0 0.7102665399144961,1.254972919603523 l -55.092300343355504 30.558770310297366" fill="#4dd2ff" stroke="none" /><line stroke="#e1ed5e" stroke-width="0.3" x1="184.99686870605535" x2="189.99668451229388" y1="99.2704041080226" y2="99.22748670261217" /><path d="M 185.99683186730306 99.26182062694052 a86.0,86.0 0 0,1 -10.086455211305974,41.156179273409016" fill="none" id="id124" stroke="none" /><text fill="#e1ed5e" style="font-size:6.75px; font-family:Arial;" text-anchor="middle"><textPath startOffset="21.40746469413373" xlink:href="#id124">April</textPath></text><line stroke="#e1ed5e" stroke-width="0.3" x1="174.33088141563837" x2="178.70328620479359" y1="141.23008692659167" y2="143.65538615756765" /><path d="M 175.20536237346943 141.71514677278685 a86.0,86.0 0 0,1 -30.301960400862466,31.63118572779886" fill="none" id="id125" stroke="none" /><text fill="#e1ed5e" style="font-size:6.75px; font-family:Arial;" text-anchor="middle"><textPath startOffset="22.145653131862474" xlink:href="#id125">May</textPath></text><line stroke="#e1ed5e" stroke-width="0.3" x1="143.1302829299769" x2="145.6673583964461" y1="173.24464959558577" y2="177.55315839532614" /><path d="M 143.63769802327073 174.10635135553383 a86.0,86.0 0 0,1 -40.685524379131806,11.842963189579606" fill="none" id="id126" stroke="none" /><text fill="#e1ed5e" style="font-size:6.75px; font-family:Arial;" text-anchor="middle"><textPath startOffset="21.407464694133747" xlink:href="#id126">June</textPath></text><line stroke="#e1ed5e" stroke-width="0.3" x1="101.45913802915013" x2="101.54496967792366" y1="184.9874750549273" y2="189.98673829345242" /><path d="M 101.47630435890484 185.9873277026323 a86.0,86.0 0 0,1 -42.54439059252881,-10.42667462771756" fill="none" id="id127" stroke="none" /><text fill="#e1ed5e" style="font-size:6.75px; font-family:Arial;" text-anchor="middle"><textPath startOffset="22.145653131862474" xlink:href="#id127">July</textPath></text><line stroke="#e1ed5e" stroke-width="0.3" x1="58.13341422392154" x2="55.670673884152215" y1="173.97424548756322" y2="178.32567169271397" /><path d="M 57.64086615596767 174.84453072859336 a86.0,86.0 0 0,1 -31.369924170532244,-30.572349798747886" fill="none" id="id128" stroke="none" /><text fill="#e1ed5e" style="font-size:6.75px; font-family:Arial;" text-anchor="middle"><textPath startOffset="22.145653131862474" xlink:href="#id128">August</textPath></text><line stroke="#e1ed5e" stroke-width="0.3" x1="26.387840678322732" x2="22.057713659400548" y1="142.50000000000003" y2="145.00000000000006" /><path d="M 25.521815274538298 143.00000000000003 a86.0,86.0 0 0,1 -11.493303480769221,-40.785679425670985" fill="none" id="id129" stroke="none" /><text fill="#e1ed5e" style="font-size:6.75px; font-family:Arial;" text-anchor="middle"><textPath startOffset="21.40746469413373" xlink:href="#id129">September</textPath></text><line stroke="#e1ed5e" stroke-width="0.3" x1="15.003131293944662" x2="10.003315487706104" y1="100.72959589197737" y2="100.7725132973878" /><path d="M 14.003168132696942 100.73817937305945 a86.0,86.0 0 0,1 10.791469493833604,-42.453326145846276" fill="none" id="id130" stroke="none" /><text fill="#e1ed5e" style="font-size:6.75px; font-family:Arial;" text-anchor="middle"><textPath startOffset="22.145653131862435" xlink:href="#id130">October</textPath></text><line stroke="#e1ed5e" stroke-width="0.3" x1="26.387840678322718" x2="22.05771365940052" y1="57.5" y2="55.0" /><path d="M 25.521815274538284 57.0 a86.0,86.0 0 0,1 29.574782752854787,-30.346332500585742" fill="none" id="id131" stroke="none" /><text fill="#e1ed5e" style="font-size:6.75px; font-family:Arial;" text-anchor="middle"><textPath startOffset="21.40746469413373" xlink:href="#id131">November</textPath></text><line stroke="#e1ed5e" stroke-width="0.3" x1="56.869717070023135" x2="54.33264160355391" y1="26.7553504044142" y2="22.446841604673864" /><path d="M 56.362301976729285 25.89364864446614 a86.0,86.0 0 0,1 42.16139366436587,-11.88097634709845" fill="none" id="id132" stroke="none" /><text fill="#e1ed5e" style="font-size:6.75px; font-family:Arial;" text-anchor="middle"><textPath startOffset="22.145653131862474" xlink:href="#id132">December</textPath></text></svg>