<?xml version="1.0" encoding="utf-8" ?>
<svg baseProfile="full" height="200mm" version="1.1" viewBox="0,0,200,200" width="200mm" xmlns="http://www.w3.org/2000/svg" xmlns:ev="http://www.w3.org/2001/xml-events" xmlns:xlink="http://www.w3.org/1999/xlink"><defs /><rect fill="#1a1a1a" height="200" width="200" x="0" y="0" /><text alignment-baseline="middle" fill="#e1ed5e" style="dominant-baseline: central; font-size:9.0px; font-family:Arial;" text-anchor="middle" x="100.0" y="100.0">2023</text><line stroke="#e1ed5e" stroke-width="0.3" x1="100.0" x2="100.0" y1="15.0" y2="10.0" /><path d="M 100.0 14.0 a86.0,86.0 0 0,1 42.46469731375804,11.215312516191453" fill="none" id="id109" stroke="none" /><text fill="#e1ed5e" style="font-size:6.75px; font-family:Arial;" text-anchor="middle"><textPath startOffset="22.20632615414155" xlink:href="#id109">January</textPath></text><path d="M 102.52436894288641 79.15227682838746 l 2.792401922219833 -23.061297130265572 a44.229742439932735,44.229742439932735 0 0,0 0.7550338679336823,0.09802506567489606 l -3.188950518661361 23.009813741426537" fill="#e9ff1a" stroke="none" /><path d="M 102.88285421437855 79.19881850522331 l 0.738509372645083 -5.328700778334537 a26.379632708513448,26.379632708513448 0 0,0 0.44924642578396407,0.06620724521649414 l -0.8301247788577029 5.315199048957074" fill="#ff2303" stroke="none" /><path d="M 103.59715602781102 79.31037775812273 l 0.8321437120494091 -4.786208582598693 a25.858009443552447,25.858009443552447 0 0,0 0.43786830079497685,0.08001763318653872 l -0.9144071339472868 4.771175468061416" fill="#ff1c02" stroke="none" /><path d="M 103.95276090670814 79.375362276772 l 2.1430237789620263 -11.181827111866474 a32.38533304198295,32.38533304198295 0 0,0 0.5465928509844268,0.10964138382890745 l -2.3351830394135784 11.143281771960359" fill="#ff7a0b" stroke="none" /><path d="M 104.66035177308747 79.52364482259891 l 2.388642254731715 -10.495063373130634 a31.76345516212698,31.76345516212698 0 0,0 0.5320776736316291,0.1259255946084428 l -2.5689436153258685 10.452391866381323" fill="#ff710a" stroke="none" /><path d="M 105.71112130821622 79.79150937346287 l 3.6183583674341353 -12.803363333667889 a34.30483483283772,34.30483483283772 0 0,0 0.5668625364941338,0.16548271879687285 l -3.838211121651696 12.739182285952312" fill="#ff940d" stroke="none" /><path d="M 106.0581310904928 79.89281104454417 l 3.4748337629978656 -11.53311772520794 a33.04521789524687,33.04521789524687 0 0,0 0.5432234561619406,0.1687821721058046 l -3.6728425918705248 11.471595418219614" fill="#ff830c" stroke="none" /><path d="M 107.08798089147638 80.2323363322302 l 5.273915154893707 -14.708417332171674 a36.62535508327237,36.62535508327237 0 0,0 0.5916175128143427,0.21789772283509828 l -5.526314993480626 14.615456341530251" fill="#ffb310" stroke="none" /><path d="M 107.4271985657038 80.35727306442388 l 2.1371974325511536 -5.652250334179477 a27.042809504356004,27.042809504356004 0 0,0 0.43399438422261827,0.16838307857107682 l -2.234174981773439 5.614624551717854" fill="#ff2d04" stroke="none" /><path d="M 107.76421540070413 80.48803036053334 l 2.2424734724446456 -5.63547918926633 a27.06525456739219,27.06525456739219 0 0,0 0.43138939416203503,0.1759745654213125 l -2.339146736195068 5.5960437376614385" fill="#ff2d04" stroke="none" /><path d="M 108.43124777332544 80.76684994638697 l 1.9778271696425413 -4.51176952173049 a25.92624243518246,25.92624243518246 0 0,0 0.4071875407661211,0.18269318030983725 l -2.0551968288754425 4.477056010904122" fill="#ff1d02" stroke="none" /><path d="M 109.08828744355905 81.06846463323043 l 4.2214338372084095 -8.793540530479973 a30.754325128019985,30.754325128019985 0 0,0 0.47526962703550313,0.23321274191299313 l -4.372174731254344 8.719572628432147" fill="#ff6309" stroke="none" /><path d="M 109.41281617654863 81.2277094730956 l 6.925941146349768 -13.812633427968603 a36.45177992912585,36.45177992912585 0 0,0 0.558475138138997,0.28607265704684326 l -7.16267677207752 13.691368245609258" fill="#ffb110" stroke="none" /><path d="M 109.73455568895987 81.39251694778311 l 6.441720171820185 -12.313268602511352 a34.896486694471626,34.896486694471626 0 0,0 0.5298532210138648,0.2830292406865238 l -6.652718439362361 12.200560635323074" fill="#ff9c0e" stroke="none" /><line stroke="#e1ed5e" stroke-width="0.3" x1="143.23703022742887" x2="145.7803849466894" y1="26.818313649435467" y2="22.513508569990506" /><path d="M 143.74570117128098 25.957352633546478 a86.0,86.0 0 0,1 28.547481713284135,27.462654790039114" fill="none" id="id110" stroke="none" /><text fill="#e1ed5e" style="font-size:6.75px; font-family:Arial;" text-anchor="middle"><textPath startOffset="19.985693538727396" xlink:href="#id110">February</textPath></text><path d="M 111.2981086023043 82.29822771554956 l 2.8488661125982904 -4.4635771321774245 a26.295239271497383,26.295239271497383 0 0,0 0.3794440268645643,0.24680094999498872 l -2.925277165247135 4.413877258022908" fill="#ff2203" stroke="none" /><path d="M 111.90073688211348 82.69761687909136 l 17.866029720297604 -25.97527313915635 a52.52633554062912,52.52633554062912 0 0,0 0.7405434431124208,0.5187980069139937 l -18.310504302993674 25.66389028947842" fill="#88ff25" stroke="none" /><path d="M 112.48926042617603 83.11751280151076 l 1.833396424703906 -2.478312615288833 a24.082754591143583,24.082754591143583 0 0,0 0.3311422864897939,0.24940950488455063 l -1.8757848649520827 2.446386520898433" fill="#ff0100" stroke="none" /><path d="M 112.77801427241765 83.33499621200491 l 5.478216860228952 -7.144655091224971 a30.003163685075577,30.003163685075577 0 0,0 0.40713928059377896,0.3177786664397004 l -5.600388695982161 7.049298035562043" fill="#ff5808" stroke="none" /><path d="M 113.06298171725822 83.55741782278167 l 7.456946217090724 -9.38617641970844 a32.98775853387423,32.98775853387423 0 0,0 0.44155937204034523,0.3570436371272792 l -7.617408987695561 9.256426685317033" fill="#ff820c" stroke="none" /><path d="M 113.34407831869373 83.78471172551755 l 3.8194487734444764 -4.64126944041223 a27.010787881091044,27.010787881091044 0 0,0 0.356468394382876,0.298532028813442 l -3.89877470478647 4.574836254204968" fill="#ff2d04" stroke="none" /><path d="M 113.6212207817346 84.01681056812373 l 3.8923689509772617 -4.567319719657358 a27.000912053355123,27.000912053355123 0 0,0 0.35114840590307694,0.30451243732529704 l -3.970411155527103 4.49964228891239" fill="#ff2c04" stroke="none" /><path d="M 113.89432698308785 84.25364557470407 l 10.785966829993408 -12.223669180327375 a37.30199891693664,37.30199891693664 0 0,0 0.47780132616010645,0.4289747482536568 l -10.994779143749504 12.03619542330442" fill="#ffbc11" stroke="none" /><path d="M 114.16331599549186 84.49514656593476 l 2.048666464286113 -2.242714437364196 a24.037565197564057,24.037565197564057 0 0,0 0.3030932265277299,0.2816921217643999 l -2.08696757460869 2.207117729525158" fill="#ff0000" stroke="none" /><path d="M 114.42810811169701 84.74124197986012 l 7.870643525955278 -8.323769415615129 a32.45566090616301,32.45566090616301 0 0,0 0.4026306431280359,0.38733035968532636 l -8.012757412695734 8.187055969167496" fill="#ff7b0b" stroke="none" /><path d="M 114.68862486808459 84.99185889309781 l 2.750323144424077 -2.8101499093208204 a24.93207577643292,24.93207577643292 0 0,0 0.3041288210208418,0.30282279521155725 l -2.7982877656122387 2.762391263459147" fill="#ff0e01" stroke="none" /><path d="M 114.94478906791727 85.2469230424477 l 6.649101456915602 -6.563806624948213 a30.34313157319703,30.34313157319703 0 0,0 0.36373574133962827,0.37486165472481414 l -6.761101461958339 6.448380774673284" fill="#ff5d08" stroke="none" /><path d="M 115.19652480421416 85.50635884689758 l 6.512053842443537 -6.210852334863088 a29.998973939975485,29.998973939975485 0 0,0 0.3531774602532587,0.3767450900118906 l -6.617998624667258 6.097837827973141" fill="#ff5808" stroke="none" /><path d="M 115.4437574822437 85.77008943001952 l 3.3970338800046287 -3.130034149476737 a25.619193972847413,25.619193972847413 0 0,0 0.29603144475251214,0.3268853151154901 l -3.450408965373177 3.0710960470917" fill="#ff1802" stroke="none" /><path d="M 115.68641384162765 86.03803664274999 l 11.206731600394429 -9.974744867690381 a36.0028786684021,36.0028786684021 0 0,0 0.4080465741761536,0.46646777226594954 l -11.37677003814843 9.780361539221484" fill="#ffab0f" stroke="none" /><path d="M 115.9244219780498 86.31012108654704 l 2.350833017337822 -2.020959969376754 a24.100112106558235,24.100112106558235 0 0,0 0.2677285889633652,0.3169062033886322 l -2.3852722197883045 1.9801948163590153" fill="#ff0100" stroke="none" /><path d="M 116.60985879189232 87.15038557335679 l 13.315092251748483 -10.300737871032814 a37.83439581215501,37.83439581215501 0 0,0 0.3940615548191591,0.5185388147657699 l -13.490429746791756 10.070014280386012" fill="#ffc412" stroke="none" /><path d="M 116.82858285166822 87.43820079747576 l 12.004736575324518 -8.961009472254899 a35.98043360536591,35.98043360536591 0 0,0 0.3662078037827539,0.4995070328070648 l -12.1572069916209 8.753039995776337" fill="#ffab0f" stroke="none" /><path d="M 117.04232023915458 87.72973835380427 l 13.345313682053995 -9.608462247596021 a37.44445025033964,37.44445025033964 0 0,0 0.3721040107441534,0.526314734454515 l -13.508730312602031 9.377321012809713" fill="#ffbe11" stroke="none" /><path d="M 117.2510076193507 88.02491185347247 l 9.852825228274662 -6.839510665369485 a32.994043151524366,32.994043151524366 0 0,0 0.31984666496764,0.46933551383452116 l -9.969096358911035 6.668897128264559" fill="#ff820c" stroke="none" /><path d="M 117.65298651832404 88.62581576622439 l 11.34604840955375 -7.310493598442583 a34.49726383993464,34.49726383993464 0 0,0 0.3173294942332213,0.5019390530340803 l -11.470205500032927 7.114106897694296" fill="#ff970d" stroke="none" /><line stroke="#e1ed5e" stroke-width="0.3" x1="172.23445277983987" x2="176.4835382374775" y1="55.19839476539836" y2="52.563006222186495" /><path d="M 173.08426987136738 54.67131705675599 a86.0,86.0 0 0,1 12.851231095245387,41.99856678651699" fill="none" id="id111" stroke="none" /><text fill="#e1ed5e" style="font-size:6.75px; font-family:Arial;" text-anchor="middle"><textPath startOffset="22.20632615414155" xlink:href="#id111">March</textPath></text><path d="M 118.03404312379186 89.2402003453031 l 18.21539956228558 -10.868003840019457 a42.21118310421159,42.21118310421159 0 0,0 0.3669163383254954,0.6271789598768275 l -18.399775575081403 10.552845467788732" fill="#fffc17" stroke="none" /><path d="M 118.3937258080291 89.86733742301442 l 13.402760780142923 -7.383259596376251 a36.30184690804412,36.30184690804412 0 0,0 0.2967968141677329,0.5499194210286962 l -13.527865693529122 7.151459192015096" fill="#ffaf10" stroke="none" /><path d="M 118.56541770881063 90.18545643968196 l 9.630710119304407 -5.0912414396069225 a31.893636527736874,31.893636527736874 0 0,0 0.25240102538713377,0.4875584434151141 l -9.716920577851658 4.924710273931463" fill="#ff730a" stroke="none" /><path d="M 119.196687751892 91.48605970444005 l 9.213797326786667 -4.086419560995358 a31.079329640783985,31.079329640783985 0 0,0 0.21268516196392376,0.49090667750109523 l -9.28277319859327 3.9272137389076596" fill="#ff6709" stroke="none" /><path d="M 119.47837535516314 92.15188598940014 l 3.022047072759927 -1.2176256766780444 a24.258125350332996,24.258125350332996 0 0,0 0.15271812567105988,0.3886509720705874 l -3.0425587483126875 1.1654256997116725" fill="#ff0400" stroke="none" /><path d="M 119.61058180528143 92.48833698450437 l 14.146626604169022 -5.418742437715149 a36.148921211890894,36.148921211890894 0 0,0 0.21757417960948938,0.582990630277 l -14.237805372280137 5.174428670408816" fill="#ffad10" stroke="none" /><path d="M 119.7369772167798 92.82701384747503 l 8.717350887061999 -3.1681364634923046 a30.27519784907417,30.27519784907417 0 0,0 0.173789610884732,0.4913266327318253 l -8.77059357875654 3.0176122043338647" fill="#ff5c08" stroke="none" /><path d="M 119.85752413597 93.16781622104841 l 14.184969952206956 -4.88048363677086 a36.001083063359204,36.001083063359204 0 0,0 0.19657055291390765,0.5877209332403557 l -14.266877798892635 4.63558960060819" fill="#ffab0f" stroke="none" /><path d="M 119.97218684219823 93.5106431181261 l 7.652017109349009 -2.4862910747386824 a29.045806929705385,29.045806929705385 0 0,0 0.1504082011015665,0.4768351002393473 l -7.693680794218782 2.354205808072916" fill="#ff4a06" stroke="none" /><path d="M 120.18372546131832 94.20196356495316 l 10.968669828257212 -3.1508924073564204 a32.412267117626385,32.412267117626385 0 0,0 0.1494255358534804,0.5375631556016599 l -11.021282134677055 2.9616179483358085" fill="#ff7a0b" stroke="none" /><path d="M 120.28053869075195 94.5502522615342 l 28.926891653001427 -7.77317924196345 a50.95308625554594,50.95308625554594 0 0,0 0.22032033973963977,0.8489841433396793 l -29.05640832461137 7.274098673074921" fill="#99ff23" stroke="none" /><path d="M 120.37134235888165 94.90015583598534 l 14.530236322587362 -3.637558075754065 a35.978638000323016,35.978638000323016 0 0,0 0.1452289711293835,0.6020678446711238 l -14.590698093977565 3.3869049994235354" fill="#ffab0f" stroke="none" /><path d="M 120.53481517161879 95.60439243477599 l 7.521973206123432 -1.6101261225835548 a28.69237200376222,28.69237200376222 0 0,0 0.09922191698962111,0.48384130518798124 l -7.548574419028051 1.4804091612321624" fill="#ff4506" stroke="none" /><path d="M 120.6074358757038 95.95851677861258 l 14.755019628665826 -2.8937207239257523 a36.03609736169566,36.03609736169566 0 0,0 0.11413880614890555,0.6097340664430453 l -14.80264415872459 2.6393085800201437" fill="#ffac0f" stroke="none" /><path d="M 120.73433829027371 96.67025291283417 l 4.436065355537578 -0.7123919504586954 a25.492903084830463,25.492903084830463 0 0,0 0.06584951197500687,0.4338660090581438 l -4.447670760951885 0.6359268290084689" fill="#ff1602" stroke="none" /><path d="M 120.83666639777658 97.38593545837742 l 15.234202944291534 -1.9112073388478386 a36.35362018678092,36.35362018678092 0 0,0 0.07255082805093298,0.621571188696368 l -15.264844125346055 1.648692411826618" fill="#ffb010" stroke="none" /><path d="M 120.87857604477298 97.74499172005257 l 11.96277722796787 -1.2920498812938759 a33.03234939243946,33.03234939243946 0 0,0 0.056190974560324985,0.5658354454657601 l -11.983245328210424 1.0859389051236807" fill="#ff830c" stroke="none" /><path d="M 120.94382443527127 98.46500227214037 l 11.966137300971367 -0.8770123921261542 a32.99823289662445,32.99823289662445 0 0,0 0.036642823287996965,0.5668482577678371 l -11.97946071526378 0.6709050701052818" fill="#ff820c" stroke="none" /><path d="M 120.98425023603335 99.18683210126433 l 15.056818065082787 -0.5834719358523551 a36.06811898496062,36.06811898496062 0 0,0 0.018700985710400013,0.6205946721663529 l -15.064630745248833 0.3242071162610031" fill="#ffac0f" stroke="none" /><line stroke="#e1ed5e" stroke-width="0.3" x1="184.98032266829074" x2="189.97916517819016" y1="98.17113171792111" y2="98.06355123074" /><path d="M 185.9800911702706 98.14961562048488 a86.0,86.0 0 0,1 -9.607161424134198,41.387399972396054" fill="none" id="id112" stroke="none" /><text fill="#e1ed5e" style="font-size:6.75px; font-family:Arial;" text-anchor="middle"><textPath startOffset="21.466115282336823" xlink:href="#id112">April</textPath></text><path d="M 120.99824983174949 100.27111621757518 l 8.97877318660484 0.11592828184838207 a29.979521552010794,29.979521552010794 0 0,0 -0.011103754255476569,0.5159478288874497 l -8.975447369664355 -0.2704659265259466" fill="#ff5808" stroke="none" /><path d="M 120.9904718944345 100.63252640178507 l 11.985909036996535 0.3611831098139694 a32.99134974396002,32.99134974396002 0 0,0 -0.02199088241787828,0.5674869609160477 l -11.977916021727452 -0.5674473177440232" fill="#ff820c" stroke="none" /><path d="M 120.9764740272857 100.99374915477107 l 9.3254902346904 0.44179007522879415 a30.335949153025453,30.335949153025453 0 0,0 -0.029200011032048057,0.5213858124351117 l -9.316503872770824 -0.6022476039993291" fill="#ff5d08" stroke="none" /><path d="M 120.89721153311464 102.0752229133903 l 14.96458496165116 1.4860762428797498 a36.0381922342457,36.0381922342457 0 0,0 -0.06661522288552776,0.6167742305528982 l -14.93678743726458 -1.743446795317439" fill="#ffac0f" stroke="none" /><path d="M 120.76222939487914 103.15116336523771 l 12.195543828887327 1.8509645665613839 a33.33520810967442,33.33520810967442 0 0,0 -0.09098645937370527,0.5665727693734436 l -12.161875615152331 -2.0606165656280324" fill="#ff870c" stroke="none" /><path d="M 120.49622156327973 104.57218783832717 l 16.320722746275575 3.6407398223543637 a37.72187122946693,37.72187122946693 0 0,0 -0.14682687649224704,0.6325263411122263 l -16.255635303852774 -3.9211348208151544" fill="#ffc212" stroke="none" /><path d="M 120.13307415673323 105.97154293290107 l 11.506936433633046 3.4129991478039057 a33.002422641724536,33.002422641724536 0 0,0 -0.16622727418723268,0.5432403498895931 l -11.446482386939682 -3.6105664702455558" fill="#ff820c" stroke="none" /><path d="M 119.54520255179757 107.68017299344265 l 27.986404469018186 10.997093901528695 a51.06950131582698,51.06950131582698 0 0,0 -0.3285407675688991,0.8154112416737644 l -27.792961087191895 -11.477204511045272" fill="#98ff23" stroke="none" /><path d="M 119.26925614724726 108.34839909993367 l 14.011067051136708 6.070290345667022 a36.269526017272014,36.269526017272014 0 0,0 -0.25312487573344106,0.5707297717632991 l -13.904501090671994 -6.3105684539230085" fill="#ffaf10" stroke="none" /><path d="M 119.12269723197855 108.67885076344098 l 13.664960952720465 6.20185297911756 a36.00646987848789,36.00646987848789 0 0,0 -0.26100469873799476,0.5621809010135915 l -13.55618163714264 -6.4361539474099825" fill="#ffab0f" stroke="none" /><path d="M 118.97047184881838 109.00673069616215 l 5.408522850843084 2.5678385424354673 a26.987145748026258,26.987145748026258 0 0,0 -0.20284919379000324,0.4179294211539475 l -5.363520400438368 -2.6605569195546903" fill="#ff2c04" stroke="none" /><line stroke="#e1ed5e" stroke-width="0.3" x1="174.80103733775053" x2="179.2010983576182" y1="140.37084112569926" y2="142.7455964860345" /><path d="M 175.68104954172406 140.8457921977663 a86.0,86.0 0 0,1 -30.038265399797805,32.042727171017184" fill="none" id="id113" stroke="none" /><text fill="#e1ed5e" style="font-size:6.75px; font-family:Arial;" text-anchor="middle"><textPath startOffset="22.206326154141568" xlink:href="#id113">May</textPath></text><path d="M 118.48025628344425 109.97397251340804 l 16.108356815844086 8.693835499528818 a39.30469707477887,39.30469707477887 0 0,0 -0.32646030424779426,0.5926202790151666 l -15.956320102144783 -8.969826296941791" fill="#ffd714" stroke="none" /><path d="M 117.94076556474637 110.91462005526583 l 7.733532356077717 4.704847574484556 a30.05224355624804,30.05224355624804 0 0,0 -0.2726673835607586,0.43962664148494224 l -7.651400332848998 -4.837270547334769" fill="#ff5908" stroke="none" /><path d="M 117.75023020441432 111.22182372390056 l 12.655620538639523 8.00097470092918 a35.97265265018004,35.97265265018004 0 0,0 -0.33539383049199584,0.520538673043711 l -12.516021844770476 -8.217634973894347" fill="#ffab0f" stroke="none" /><path d="M 117.35343817320211 111.8261652097733 l 9.527764127311588 6.493059849277512 a32.529879247936,32.529879247936 0 0,0 -0.31931808563308106,0.4600015182226579 l -9.414585134516368 -6.6561026296871875" fill="#ff7c0b" stroke="none" /><path d="M 116.498646956653 112.99209946851258 l 7.050292536014662 5.551855382485031 a29.973835469374958,29.973835469374958 0 0,0 -0.32269272888764605,0.4026087955626513 l -6.953681895072162 -5.6723920116259325" fill="#ff5808" stroke="none" /><path d="M 116.0416608686014 113.55231037782055 l 11.780806638156644 9.952656982911728 a36.42215244591809,36.42215244591809 0 0,0 -0.4087215734016902,0.47543552777409664 l -11.607742555184172 -10.153969609847355" fill="#ffb110" stroke="none" /><path d="M 115.80600337817218 113.82643327865902 l 15.927337358140855 13.932571189573796 a42.16120543051768,42.16120543051768 0 0,0 -0.48252726730397355,0.5421245000524535 l -15.685151241188546 -14.204669859367113" fill="#fffb17" stroke="none" /><path d="M 115.32070863581623 114.36230785411682 l 8.765628086171233 8.217286295359198 a33.014991877024805,33.014991877024805 0 0,0 -0.3922392466473557,0.41126128195790956 l -8.622882288144915 -8.366954693899613" fill="#ff820c" stroke="none" /><path d="M 114.29624159901734 115.38237550388516 l 20.39248705471429 21.94177337876646 a50.95488186058884,50.95488186058884 0 0,0 -0.6476133774025659,0.5915794654922701 l -20.01177412784486 -22.289545610845312" fill="#99ff23" stroke="none" /><path d="M 113.48314897796784 116.09983520530334 l 7.831875585594816 9.351814363436599 a33.1981435914001,33.1981435914001 0 0,0 -0.4412663596772569,0.3631321727535659 l -7.669739097372869 -9.485241655047343" fill="#ff850c" stroke="none" /><path d="M 112.63410532772338 116.77436683061366 l 5.440106014001374 7.222856823588814 a30.04236772851212,30.04236772851212 0 0,0 -0.41575064695799613,0.3075623894253109 l -5.314970396624814 -7.315429161753894" fill="#ff5908" stroke="none" /><path d="M 112.04921762599082 117.19931262002967 l 11.446453387891175 16.33891397100143 a40.949471294070705,40.949471294070705 0 0,0 -0.5807865763462776,0.39947030310571724 l -11.163509926922014 -16.53352506347224" fill="#ffec16" stroke="none" /><path d="M 111.45004920935366 117.60387380957326 l 7.448020029465236 11.450955566441731 a34.66006536382378,34.66006536382378 0 0,0 -0.5029310789809517,0.3209944099660661 l -7.2498071484373545 -11.577464405231606" fill="#ff990e" stroke="none" /><path d="M 111.1453310114006 117.79835938074945 l 1.7004367473144988 2.7154854622063653 a24.203957931538994,24.203957931538994 0 0,0 -0.3550153565179706,0.21807942804990146 l -1.6534421908642196 -2.7443533570846452" fill="#ff0300" stroke="none" /><line stroke="#e1ed5e" stroke-width="0.3" x1="143.8653032363475" x2="146.44561519142675" y1="172.8068346515853" y2="177.08958963109032" /><path d="M 144.38136562736335 173.6633856474863 a86.0,86.0 0 0,1 -40.68145358897372,12.25698825130547" fill="none" id="id114" stroke="none" /><text fill="#e1ed5e" style="font-size:6.75px; font-family:Arial;" text-anchor="middle"><textPath startOffset="21.466115282336833" xlink:href="#id114">June</textPath></text><path d="M 110.8373102113329 117.98757091392108 l 18.97751942566827 31.49854251496396 a57.77369201098264,57.77369201098264 0 0,0 -0.8562394839585086,0.5058813795638422 l -18.432512070681376 -31.820542466821554" fill="#4fff2b" stroke="none" /><path d="M 109.57404056367764 118.69057910512821 l 6.840867873237403 13.354840235120085 a36.00497354095214,36.00497354095214 0 0,0 -0.5540412620830613,0.27780779051637744 l -6.6099727034715805 -13.470615866545764" fill="#ffab0f" stroke="none" /><path d="M 109.2508944713604 118.85261126421891 l 6.622365001565409 13.495870416725376 a36.03310468662417,36.03310468662417 0 0,0 -0.5591777309520124,0.26843929203171885 l -6.389074602613164 -13.607863985256653" fill="#ffac0f" stroke="none" /><path d="M 108.2653958097858 119.30500536409082 l 4.541464237657847 10.607234485372265 a32.53855800564333,32.53855800564333 0 0,0 -0.516787512460923,0.21601722212137486 l -4.358205265699461 -10.683836750513613" fill="#ff7c0b" stroke="none" /><path d="M 107.93186726928326 119.44442032107085 l 4.8023226142037965 11.77255950683605 a33.71438004123241,33.71438004123241 0 0,0 -0.5392356995316534,0.21457301340017906 l -4.598965838630277 -11.853479364642299" fill="#ff8c0c" stroke="none" /><path d="M 107.2578585660854 119.70592522655815 l 3.8308601647016993 10.401228306068868 a32.08426992979089,32.08426992979089 0 0,0 -0.5198880699325444,0.18641336514625964 l -3.6512525341394197 -10.465629212255088" fill="#ff750a" stroke="none" /><path d="M 106.2309692047433 120.05430185196036 l 4.830796303034242 15.547861666951357 a37.2810501914362,37.2810501914362 0 0,0 -0.6144716404954921,0.18513526469356395 l -4.5624496880985035 -15.628712300750648" fill="#ffbc11" stroke="none" /><path d="M 105.88484417918355 120.15858648285463 l 1.640462444146367 5.6194188062236154 a26.85397170734488,26.85397170734488 0 0,0 -0.44484094140886,0.12571649343820693 l -1.5434903346329025 -5.646824093000341" fill="#ff2a04" stroke="none" /><path d="M 105.53697534728816 120.25689768951611 l 2.185158112417002 7.994350984482311 a29.287615075481916,29.287615075481916 0 0,0 -0.48744292267328393,0.12873810617779755 l -2.0472247469322196 -8.030780439963692" fill="#ff4e07" stroke="none" /><path d="M 105.18746579009965 120.34920634021253 l 8.163098914183962 32.02191414877806 a54.0460159419326,54.0460159419326 0 0,0 -0.9034607794824532,0.22204867850522964 l -7.6106848499582975 -32.15768408559732" fill="#77ff27" stroke="none" /><path d="M 104.83641907484287 120.43548508189849 l 1.3813548424047908 5.836685332254525 a26.99791937828363,26.99791937828363 0 0,0 -0.453153456626712,0.10313625138724973 l -1.280681236385216 -5.85959831721946" fill="#ff2c04" stroke="none" /><path d="M 104.48393922423573 120.51570834832081 l 2.5562504830034016 11.695807358649198 a32.971897355995324,32.971897355995324 0 0,0 -0.5555113722583457,0.1164128091926392 l -2.354547649315678 -11.738076148568378" fill="#ff820b" stroke="none" /><path d="M 104.13013068566511 120.58985236759428 l 2.3537236400393455 11.733968232707968 a32.96770761089524,32.96770761089524 0 0,0 -0.5573620892951777,0.10681977094637345 l -2.151393936172464 -11.77274520200281" fill="#ff820b" stroke="none" /><path d="M 103.7750983002368 120.6578951692458 l 2.7009435500259693 14.779961812116799 a36.02472519642399,36.02472519642399 0 0,0 -0.6109639491020552,0.10622391393108087 l -2.446130629451864 -14.824264304568887" fill="#ffab0f" stroke="none" /><path d="M 102.70371172650421 120.8252237178851 l 3.9174755460757327 30.174187527696926 a51.427425254377376,51.427425254377376 0 0,0 -0.8788520298509968,0.10641674159264305 l -3.3974960931733555 -30.237149798014922" fill="#94ff23" stroke="none" /><path d="M 101.98527174616119 120.90594882070398 l 0.8772714352247291 9.238126600117651 a30.27968686168141,30.27968686168141 0 0,0 -0.519304822868635,0.044807805237841974 l -0.7181222946145521 -9.251858657634155" fill="#ff5c08" stroke="none" /><path d="M 100.90346689309514 120.98055641714683 l 0.9048788685828931 21.01334569986077 a42.0328196699507,42.0328196699507 0 0,0 -0.7231239194515497,0.02490584989870698 l -0.543034597456691 -21.02580834818557" fill="#fffa17" stroke="none" /><line stroke="#e1ed5e" stroke-width="0.3" x1="102.19456741930631" x2="102.32365962044197" y1="184.97166512339345" y2="189.96999836594603" /><path d="M 102.22038585953345 185.97133177190398 a86.0,86.0 0 0,1 -42.740103519485714,-10.115201625700543" fill="none" id="id115" stroke="none" /><text fill="#e1ed5e" style="font-size:6.75px; font-family:Arial;" text-anchor="middle"><textPath startOffset="22.20632615414155" xlink:href="#id115">July</textPath></text><path d="M 100.54218724476979 120.99299961872073 l 0.5955215287827007 23.058054845947755 a44.06574384601499,44.06574384601499 0 0,0 -0.7584350533720913,0.013057147252026603 l -0.19852678551794153 -23.06488947047894" fill="#ebff1a" stroke="none" /><path d="M 100.18074693466247 120.99922214144158 l 0.12911169945879053 15.000228153563551 a36.00078379585206,36.00078379585206 0 0,0 -0.6197172682424815,0.0 l 0.12911169945878018 -15.000228153563551" fill="#ffab0f" stroke="none" /><path d="M 99.81925306533755 120.99922214144158 l -0.07116405052662698 8.267856427464412 a29.26816268751722,29.26816268751722 0 0,0 -0.5037473237165747,-0.008672467015253683 l 0.21347106413586964 -8.265406483169999" fill="#ff4d07" stroke="none" /><path d="M 99.45781275523022 120.99299961872073 l -0.39054202029634905 15.12143371549977 a36.12647614885471,36.12647614885471 0 0,0 -0.6215124094425059,-0.021406144041672105 l 0.650774781413498 -15.112470773032003" fill="#ffad10" stroke="none" /><path d="M 98.37488393609728 120.93702456842531 l -1.2141009795173157 15.641751750122962 a36.68879979478799,36.68879979478799 0 0,0 -0.6292228438731359,-0.05429199460102177 l 1.4831681411319932 -15.618535503243278" fill="#ffb410" stroke="none" /><path d="M 97.65516085044442 120.86867818915974 l -3.5337661852131323 31.449930938300994 a52.64783814853169,52.64783814853169 0 0,0 -0.8997078736731883,-0.10894209383323175 l 4.07460148193771 -31.384443315742413" fill="#86ff25" stroke="none" /><path d="M 96.93821686468263 120.77559828337769 l -2.8890256936208507 19.603360064494577 a40.81510018336073,40.81510018336073 0 0,0 -0.6941757147010411,-0.10841597019168167 l 3.2260372719304096 -19.55072578695579" fill="#ffea16" stroke="none" /><path d="M 95.51606077576429 120.51570834832081 l -2.841627311747849 13.00151367961029 a34.308426042923514,34.308426042923514 0 0,0 -0.57585851838932,-0.13106352395103255 l 3.0650059795300315 -12.950673422081572" fill="#ff940d" stroke="none" /><path d="M 95.16358092515715 120.4354850818985 l -3.4546966430843993 14.597246561916267 a36.000484528344906,36.000484528344906 0 0,0 -0.6018024686346832,-0.14790840500908722 l 3.705452396462293 -14.535616898593151" fill="#ffab0f" stroke="none" /><path d="M 94.46302465271185 120.25689768951611 l -1.5838904701746452 5.794627065016915 a27.007196671005254,27.007196671005254 0 0,0 -0.44737914089102504,-0.1264338139652569 l 1.6834007791702852 -5.766504457713137" fill="#ff2d04" stroke="none" /><path d="M 94.11515582081647 120.15858648285463 l -1.6989156072551013 5.8196506403802495 a27.06256115982785,27.06256115982785 0 0,0 -0.4460490320551345,-0.13439091436220832 l 1.7988396137504816 -5.789544356912316" fill="#ff2d04" stroke="none" /><path d="M 93.42475214034765 119.94407469862007 l -1.9014164792089672 5.767385976007274 a27.07273625507092,27.07273625507092 0 0,0 -0.44132462058659416,-0.149721272626611 l 2.000410832732787 -5.73380171648254" fill="#ff2e04" stroke="none" /><path d="M 93.08242187328487 119.8279376855182 l -3.945418999981846 11.308802104132871 a32.97728417112401,32.97728417112401 0 0,0 -0.5343583212851638,-0.19160188245442467 l 4.139496881896736 -11.23921268063849" fill="#ff820c" stroke="none" /><path d="M 92.7421414339146 119.70592522655815 l -10.848725412154982 29.455543922329973 a52.3898695573691,52.3898695573691 0 0,0 -0.8435511918014661,-0.31895888093308883 l 11.354146824716732 -29.26443679129025" fill="#89ff24" stroke="none" /><path d="M 92.06813273071674 119.44442032107085 l -5.802801782341204 14.225164524960238 a36.3631967470097,36.3631967470097 0 0,0 -0.5775316161446102,-0.24140826238764804 l 6.046804857983275 -14.123171219552617" fill="#ffb010" stroke="none" /><path d="M 91.7346041902142 119.30500536409082 l -3.5997429340974523 8.407710683355685 a30.14591428598573,30.14591428598573 0 0,0 -0.4752709030299818,-0.2083447969639854 l 3.7439345117851786 -8.344501333097247" fill="#ff5a08" stroke="none" /><path d="M 91.07499286063937 119.00905698771935 l -3.203249733577778 6.822488293924085 a28.5370521675518,28.5370521675518 0 0,0 -0.4428506568581603,-0.21259522728201774 l 3.32021305843618 -6.7663387901425045" fill="#ff4306" stroke="none" /><path d="M 90.7491055286396 118.85261126421891 l -2.64377814865512 5.3878164819344 a27.00151058836942,27.00151058836942 0 0,0 -0.41549679206162743,-0.20833871711161134 l 2.7361288483995065 -5.3415099239134864" fill="#ff2c04" stroke="none" /><path d="M 90.42595943632237 118.69057910512821 l -28.722121691032893 56.07173731538464 a84.0,84.0 0 0,0 -1.2812363898940176,-0.6702823242211329 l 29.683048983453407 -55.569025572218784" fill="#4dd2ff" stroke="none" /><line stroke="#e1ed5e" stroke-width="0.3" x1="58.666819895761336" x2="56.23545636021788" y1="174.27360380694188" y2="178.64263932499728" /><path d="M 58.180547188652646 175.14741091055294 a86.0,86.0 0 0,1 -31.652253787137756,-30.449443065178592" fill="none" id="id116" stroke="none" /><text fill="#e1ed5e" style="font-size:6.75px; font-family:Arial;" text-anchor="middle"><textPath startOffset="22.20632615414155" xlink:href="#id116">August</textPath></text><path d="M 89.7882731507175 118.34994917583269 l -1.466461681316487 2.635156395938503 a24.015718669542167,24.015718669542167 0 0,0 -0.35949384652590305,-0.2041299882704763 l 1.5116042947635975 -2.6095232418733936" fill="#ff0000" stroke="none" /><path d="M 88.54995079064634 117.60387380957326 l -8.823239939824159 13.565286895480414 a37.18229191407697,37.18229191407697 0 0,0 -0.5335221577403774,-0.35358939407625906 l 9.055436796304498 -13.411399480312836" fill="#ffbb11" stroke="none" /><path d="M 88.24862548938628 117.40417183066458 l -8.88813737959915 13.16362354628231 a36.88332367443495,36.88332367443495 0 0,0 -0.5231163823169529,-0.359804217787435 l 9.113410646538993 -13.00867853912977" fill="#ffb711" stroke="none" /><path d="M 87.65650970185807 116.9893568818739 l -6.582190212520399 9.059607605615392 a32.19829085001473,32.19829085001473 0 0,0 -0.4455860594213667,-0.3296339143017377 l 6.73716124236033 -8.944963742573885" fill="#ff770b" stroke="none" /><path d="M 87.36589467227662 116.77436683061367 l -4.498822736119552 5.973110158895042 a28.477797201136266,28.477797201136266 0 0,0 -0.38902199489498024,-0.298285476936605 l 4.600973459508019 -5.89478534013107" fill="#ff4206" stroke="none" /><path d="M 86.79598089348748 116.32954008644617 l -7.040880705237926 8.70752630639258 a32.197991582507576,32.197991582507576 0 0,0 -0.4279724405497396,-0.35219218235702615 l 7.189723274332355 -8.585039005178379" fill="#ff770b" stroke="none" /><path d="M 86.51685102203217 116.09983520530335 l -9.283347326850535 11.08497446405976 a35.45881034040491,35.45881034040491 0 0,0 -0.46456870876913536,-0.39591553221595577 l 9.472781512196727 -10.92353454162085" fill="#ffa40f" stroke="none" /><path d="M 85.70375840098266 115.38237550388516 l -6.765781191679889 7.279800508876212 a30.938374644916728,30.938374644916728 0 0,0 -0.3869715410195884,-0.36590574557977273 l 6.890088567090294 -7.162260126550509" fill="#ff6509" stroke="none" /><path d="M 85.44109423537348 115.13401014063109 l -3.335600406308853 3.467362945423005 a25.81132371243718,25.81132371243718 0 0,0 -0.3175407957310446,-0.3107805021010437 l 3.394791154415692 -3.409432340399389" fill="#ff1b02" stroke="none" /><path d="M 85.18274418774928 114.88116024355367 l -16.475833464852816 16.546891073707947 a44.350646512821,44.350646512821 0 0,0 -0.5363458317513816,-0.5433154958822137 l 16.75821992165973 -16.260835083845066" fill="#e7ff1a" stroke="none" /><path d="M 84.9287848128048 114.62390073753433 l -21.73504139174276 21.08994423416493 a51.28527318848152,51.28527318848152 0 0,0 -0.6093018891079306,-0.6388505947728133 l 22.094849832229652 -20.712686522809612" fill="#96ff23" stroke="none" /><path d="M 84.4343377721795 114.09645910891817 l -7.525811429215151 6.815469301636944 a31.153248715049827,31.153248715049827 0 0,0 -0.356543220636507,-0.40058008807383877 l 7.642013499499991 -6.684915043822239" fill="#ff6809" stroke="none" /><path d="M 83.95833913139862 113.55231037782056 l -7.357260396945549 6.215558179827458 a30.63132618258168,30.63132618258168 0 0,0 -0.3368045592440016,-0.40570278844578717 l 7.463160956083084 -6.087994134267908" fill="#ff6108" stroke="none" /><path d="M 83.72743513129214 113.27417163493433 l -3.729145553079952 3.042010803006626 a25.812520782465775,25.812520782465775 0 0,0 -0.2778927901727218,-0.3467139837103037 l 3.780956255307535 -2.9773689857180647" fill="#ff1b02" stroke="none" /><path d="M 83.28015986056508 112.70617746262583 l -11.5047088738869 8.742958747714058 a35.449832315190434,35.449832315190434 0 0,0 -0.36502984931944854,-0.4890171354888285 l 11.653499989901434 -8.543628732715922" fill="#ffa40f" stroke="none" /><path d="M 83.06392112726016 112.41649034213515 l -17.007680334859877 12.468984125942875 a42.088782693787586,42.088782693787586 0 0,0 -0.4233334009161787,-0.5879730680869998 l 17.219793528151666 -12.174377452404736" fill="#fffa17" stroke="none" /><path d="M 82.85270091963577 112.12312394758628 l -12.273635828155667 8.677448718594718 a36.03130908158127,36.03130908158127 0 0,0 -0.35368863656371097,-0.5095148603150479 l 12.421185371881512 -8.464892596092657" fill="#ffac0f" stroke="none" /><path d="M 82.6465618267979 111.8261652097733 l -7.965811257165976 5.428607231424147 a30.639705672781858,30.639705672781858 0 0,0 -0.29326122339801813,-0.4383857387747358 l 8.058075585974724 -5.2906845784435905" fill="#ff6109" stroke="none" /><path d="M 82.24976979558568 111.22182372390057 l -8.134039576272555 5.142398562552797 a30.623245959888653,30.623245959888653 0 0,0 -0.27784815254781897,-0.4479796906848403 l 8.22135236848833 -5.0016225405026935" fill="#ff6108" stroke="none" /><path d="M 82.05923443525364 110.91462005526583 l -12.803996971448427 7.789565145800936 a35.987316758030346,35.987316758030346 0 0,0 -0.31740663313774886,-0.5319917743342955 l 12.936184480284407 -7.5680112775805295" fill="#ffab0f" stroke="none" /><line stroke="#e1ed5e" stroke-width="0.3" x1="26.63291911575756" x2="22.317208475507996" y1="142.92168965132927" y2="145.44649492493687" /><path d="M 25.769776987707644 143.4266507060508 a86.0,86.0 0 0,1 -11.730757126820373,-40.83630448921669" fill="none" id="id117" stroke="none" /><text fill="#e1ed5e" style="font-size:6.75px; font-family:Arial;" text-anchor="middle"><textPath startOffset="21.46611528233685" xlink:href="#id117">September</textPath></text><path d="M 81.87401531095188 110.60418214915194 l -12.471742393711892 7.296300329555572 a35.44923378017614,35.44923378017614 0 0,0 -0.3035939968234475,-0.5293417234758335 l 12.595488386687716 -7.08053876022143" fill="#ffa40f" stroke="none" /><path d="M 81.51974371655577 109.97397251340807 l -12.721559322968174 6.865948235179278 a35.45611693284057,35.45611693284057 0 0,0 -0.28524866780421715,-0.5395829807184 l 12.837860498997276 -6.645950239374752" fill="#ffa40f" stroke="none" /><path d="M 81.18737489456691 109.33194174019688 l -9.373158064586937 4.649524693665456 a31.462990584949218,31.462990584949218 0 0,0 -0.23649193338076155,-0.4872434293612262 l 9.451803254582417 -4.487492308338945" fill="#ff6d0a" stroke="none" /><path d="M 81.02952815118164 109.00673069616217 l -8.704569566702268 4.1327234524311365 a30.63581519518892,30.63581519518892 0 0,0 -0.22207374792913775,-0.47832709643127924 l 8.774417931471232 -3.9822762887210312" fill="#ff6108" stroke="none" /><path d="M 80.73074385275274 108.34839909993369 l -8.841391643875275 3.830530118955008 a30.635515927681766,30.635515927681766 0 0,0 -0.2054753504324461,-0.4856830319850173 l 8.90601797550003 -3.6777725613038306" fill="#ff6108" stroke="none" /><path d="M 80.58989483394504 108.01547362559985 l -17.805950527033204 7.353032124615655 a40.264447970206255,40.264447970206255 0 0,0 -0.2590296028163949,-0.6428902313271728 l 17.929882744106987 -7.045442525445677" fill="#ffe315" stroke="none" /><path d="M 80.32549172779594 107.34259656027581 l -9.025652865707563 3.3684057954127313 a30.633720322638872,30.633720322638872 0 0,0 -0.18012005976176715,-0.49561304597690653 l 9.082297186474555 -3.212544952429708" fill="#ff6108" stroke="none" /><path d="M 80.0844068197444 106.66101706037122 l -13.69884097064419 4.581747206165924 a35.4447447675689,35.4447447675689 0 0,0 -0.18854536434708083,-0.5802829638617211 l 13.77567858600752 -4.345265342326399" fill="#ffa40f" stroke="none" /><path d="M 79.86692584326677 105.97154293290107 l -9.235732404095346 2.7393517819729665 a30.633421055131727,30.633421055131727 0 0,0 -0.1455924275557332,-0.5068263402536014 l 9.281517468537185 -2.579967966214769" fill="#ff6108" stroke="none" /><path d="M 79.67330655649465 105.27499134158121 l -23.305007756401032 6.047895319136492 a45.07696875267203,45.07696875267203 0 0,0 -0.1884403734456994,-0.7527256202817026 l 23.405659444141794 -5.645841859457398" fill="#dfff1b" stroke="none" /><path d="M 79.35854240842038 103.8639653848113 l -14.204594644153667 2.65902065136503 a35.45132865272618,35.45132865272618 0 0,0 -0.10711966318181582,-0.6007839585285529 l 14.248260749674673 -2.4141179421032635" fill="#ffa40f" stroke="none" /><path d="M 79.29508885075956 103.50808413554451 l -9.493922795699481 1.6085787426766882 a30.629231310031635,30.629231310031635 0 0,0 -0.08360065733110654,-0.5205813730038672 l 9.520205207391877 -1.4449181399796067" fill="#ff6108" stroke="none" /><path d="M 79.18660465613746 102.79330883721812 l -6.82287923503715 0.9156799526282599 a27.884050466952317,27.884050466952317 0 0,0 -0.0597495327189321,-0.47626256385950905 l 6.83763027700293 -0.7980996344813422" fill="#ff3905" stroke="none" /><path d="M 79.1416061653843 102.43462659150553 l -14.349125173314892 1.6748538736389966 a35.4465403726118,35.4465403726118 0 0,0 -0.06552157700070652,-0.6066484279226785 l 14.37582905181665 -1.427609123831536" fill="#ffa40f" stroke="none" /><path d="M 79.07016306316243 101.71520430193888 l -9.727402054320622 0.7971625340708843 a30.760011210655826,30.760011210655826 0 0,0 -0.03870406436710244,-0.5280862077667722 l 9.73968267735206 -0.6296031898073512" fill="#ff6309" stroke="none" /><path d="M 79.0095281055655 100.63252640178507 l -30.73279329309501 0.9261012928270614 a51.746743684505546,51.746743684505546 0 0,0 -0.01916585374443193,-0.8905619127275304 l 30.74418120952445 -0.3969495643094022" fill="#90ff24" stroke="none" /><line stroke="#e1ed5e" stroke-width="0.3" x1="15.007084014347285" x2="10.007500721073583" y1="101.09737516637583" y2="101.16192664675087" /><path d="M 14.007167355692545 101.11028546245083 a86.0,86.0 0 0,1 10.666146001902526,-42.60595125391555" fill="none" id="id118" stroke="none" /><text fill="#e1ed5e" style="font-size:6.75px; font-family:Arial;" text-anchor="middle"><textPath startOffset="22.20632615414155" xlink:href="#id118">October</textPath></text><path d="M 79.00175016825051 100.2711162175752 l -14.449825016989651 0.18656706795184363 a35.45102938521904,35.45102938521904 0 0,0 -0.0026262505954520753,-0.6102481481276032 l 14.450895564874607 0.06219055837943493" fill="#ffa40f" stroke="none" /><path d="M 79.01574976396665 99.18683210126434 l -4.814892307167784 -0.18658354794753929 a25.818506132608757,25.818506132608757 0 0,0 0.021031499082391384,-0.44394170514622633 l 4.810967199851894 0.26943635971677454" fill="#ff1b02" stroke="none" /><path d="M 79.08570108090925 98.10471618934814 l -31.618826720734706 -2.865343496688439 a52.748392030933815,52.748392030933815 0 0,0 0.0897297228088371,-0.9035660633105861 l 31.564819872243643 3.4091850907034558" fill="#85ff25" stroke="none" /><path d="M 79.16333360222342 97.38593545837743 l -5.972945427733205 -0.7493360287876984 a27.01976590630552,27.01976590630552 0 0,0 0.06186754520456681,-0.46098507266361505 l 5.959161883470804 0.8520394435159735" fill="#ff2d04" stroke="none" /><path d="M 79.46518482838121 95.60439243477599 l -14.703315506087213 -3.1473380370015533 a36.036396629202805,36.036396629202805 0 0,0 0.13506031842567207,-0.6054489248351911 l 14.646960800659503 3.3999651313867036" fill="#ffac0f" stroke="none" /><path d="M 79.71946130924805 94.55025226153421 l -14.495526445291016 -3.8952102637746413 a36.00976182106653,36.00976182106653 0 0,0 0.16601053966826748,-0.5972282385168375 l 14.426329135056388 4.144149805710422" fill="#ffab0f" stroke="none" /><path d="M 80.95270993114464 91.15688171328213 l -13.643648232720091 -6.334360150349911 a36.04238197934579,36.04238197934579 0 0,0 0.2660988571582513,-0.5604720568445913 l 13.532591181720088 6.568274622835034" fill="#ffac0f" stroke="none" /><line stroke="#e1ed5e" stroke-width="0.3" x1="26.266209847984243" x2="21.928928074336255" y1="57.71137044288968" y2="55.22380399835378" /><path d="M 25.398753493254645 57.2138571539825 a86.0,86.0 0 0,1 29.58750427330803,-30.4925239686951" fill="none" id="id119" stroke="none" /><text fill="#e1ed5e" style="font-size:6.75px; font-family:Arial;" text-anchor="middle"><textPath startOffset="21.46611528233685" xlink:href="#id119">November</textPath></text><path d="M 81.78341655067845 89.55222093294921 l -6.512103648587232 -3.734894656369205 a28.507125416836885,28.507125416836885 0 0,0 0.24779523588117514,-0.42356238212679925 l 6.446848738235732 3.846436450849895" fill="#ff4206" stroke="none" /><path d="M 82.34701348167596 88.62581576622439 l -47.79750248708419 -30.796919186343857 a77.85992855582052,77.85992855582052 0 0,0 0.7356034188698446,-1.1203744737884853 l 47.26030243285642 31.61511172411001" fill="#45fff0" stroke="none" /><path d="M 82.54541684631803 88.32363383020207 l -5.306420795065849 -3.5497675142788507 a27.384273730013206,27.384273730013206 0 0,0 0.2654651503267102,-0.3895373514254111 l 5.244531179070398 3.6405828889746754" fill="#ff3204" stroke="none" /><path d="M 83.39014120810768 87.1503855733568 l -9.869150542992271 -7.634910132881351 a33.477659443077414,33.477659443077414 0 0,0 0.3565305678909036,-0.45275761497541145 l 9.736265894507396 7.803660141809807" fill="#ff890c" stroke="none" /><path d="M 86.65592168130627 83.78471172551755 l -3.9845113343282113 -4.8418480749294215 a27.27055207729652,27.27055207729652 0 0,0 0.3650314051522788,-0.295163343400492 l 3.9005765306114317 4.90971751559405" fill="#ff3004" stroke="none" /><path d="M 87.80319425747018 82.90503203632743 l -10.818571444557724 -15.163243242657137 a39.62700817997853,39.62700817997853 0 0,0 0.5586820549312008,-0.3913924824973705 l 10.555958250042863 15.34722056791845" fill="#ffdb14" stroke="none" /><line stroke="#e1ed5e" stroke-width="0.3" x1="56.76296977257108" x2="54.21961505331056" y1="26.818313649435495" y2="22.513508569990535" /><path d="M 56.25429882871898 25.957352633546506 a86.0,86.0 0 0,1 42.26535254187918,-11.944610805530505" fill="none" id="id120" stroke="none" /><text fill="#e1ed5e" style="font-size:6.75px; font-family:Arial;" text-anchor="middle"><textPath startOffset="22.20632615414155" xlink:href="#id120">December</textPath></text><path d="M 89.3179101791058 81.91981866633112 l -7.653297154756301 -12.953738704554606 a36.04567392192443,36.04567392192443 0 0,0 0.536914503965118,-0.31101553612984284 l 7.429185918325861 13.083558398074496" fill="#ffac0f" stroke="none" /><path d="M 89.94658935756843 81.56283822128135 l -7.220925208620716 -13.242607011541256 a36.08338162782523,36.08338162782523 0 0,0 0.5478745223829362,-0.29265559576069383 l 6.991905639709475 13.3649413338037" fill="#ffac0f" stroke="none" /><path d="M 92.23578459929587 80.48803036053334 l -6.20716037552041 -15.598990824426497 a37.788607883561184,37.788607883561184 0 0,0 0.606447477523144,-0.23529219955212624 l 5.937729732997589 15.703525727869176" fill="#ffc312" stroke="none" /><path d="M 93.94186890950719 79.89281104454417 l -1.743244387250692 -5.785900596471928 a27.042809504356004,27.042809504356004 0 0,0 0.44686283039302716,-0.13045151397735985 l 1.6433913391342436 5.815050439367987" fill="#ff2d04" stroke="none" /><path d="M 95.33964822691252 79.52364482259891 l -1.7994845657553231 -7.906460048239298 a29.108653106206713,29.108653106206713 0 0,0 0.48952060164514827,-0.10699024325756838 l 1.663121239956654 7.936263789592734" fill="#ff4b07" stroke="none" /><path d="M 95.692805502759 79.44645832069477 l -0.6200719972704233 -2.958927359382388 a24.023200357220897,24.023200357220897 0 0,0 0.4054585313666749,-0.08133116703633074 l 0.5690470564366119 2.9691624824959293" fill="#ff0000" stroke="none" /><path d="M 96.04723909329186 79.375362276772 l -3.942433714698632 -20.5707527049025 a41.94513429035598,41.94513429035598 0 0,0 0.710280685697377,-0.12979925531131012 l 3.587757907898362 20.635567441564547" fill="#fff917" stroke="none" /><path d="M 96.75951476605007 79.25152402106235 l -2.3338716176396095 -14.943527188208801 a36.124680543811806,36.124680543811806 0 0,0 0.6152050635510833,-0.0906652344086576 l 2.0762975736598768 14.981486906778429" fill="#ffad10" stroke="none" /><path d="M 97.11714578562143 79.19881850522333 l -2.1046448960411137 -15.186026489391406 a36.331175123744735,36.331175123744735 0 0,0 0.620199579898296,-0.08051970531792778 l 1.8429305876349606 15.22000451787347" fill="#ffb010" stroke="none" /><path d="M 97.83486435360386 79.11191278185805 l -0.6177785692943502 -5.960001932626401 a26.991934028140648,26.991934028140648 0 0,0 0.4625580394269444,-0.04392545942351791 l 0.5150954027771691 5.9697529365651" fill="#ff2c04" stroke="none" /><path d="M 98.19473922651362 79.07773832637324 l -0.6438306637649301 -7.461743931199588 a28.489468633915084,28.489468633915084 0 0,0 0.488946856929384,-0.0379516864487526 l 0.5152936174732123 7.471720879836803" fill="#ff4206" stroke="none" /><path d="M 98.91598698831166 79.02799685794201 l -0.7741500905603097 -14.977198572892338 a35.99719258576627,35.99719258576627 0 0,0 0.6190817195522159,-0.02665896111691188 l 0.5162275386187695 14.98830526053344" fill="#ffab0f" stroke="none" /><path d="M 99.27714615592234 79.0124445844662 l -1.0329804420025608 -29.991864119300608 a51.00964781439714,51.00964781439714 0 0,0 0.8777870508672798,-0.022670649799847557 l 0.5165667559404019 30.005201561242817" fill="#99ff23" stroke="none" /></svg>